<svg width="750" height="750" viewBox="0 0 750 750" fill="none" xmlns="http://www.w3.org/2000/svg">
<rect x="203.647" y="99.7059" width="101.647" height="635.294" fill="#007BA7"/>
<path d="M102 31.9412L203.647 15V735L102 718.059V31.9412Z" fill="#007BA7" fill-opacity="0.7"/>
<rect x="203.647" y="116.647" width="101.647" height="423.529" transform="rotate(-90 203.647 116.647)" fill="#007BA7"/>
<rect x="339.177" y="404.647" width="101.647" height="186.353" transform="rotate(-90 339.177 404.647)" fill="#007BA7"/>
<rect x="305.294" y="438.529" width="25.4118" height="152.471" transform="rotate(-90 305.294 438.529)" fill="#007BA7"/>
<rect x="466.235" y="438.529" width="25.4118" height="25.4118" transform="rotate(-90 466.235 438.529)" fill="#007BA7"/>
<rect x="500.118" y="438.529" width="25.4118" height="25.4118" transform="rotate(-90 500.118 438.529)" fill="#007BA7"/>
<rect x="525.529" y="150.529" width="101.647" height="152.471" fill="#007BA7"/>
<rect x="279.882" y="735" width="101.647" height="177.882" transform="rotate(-90 279.882 735)" fill="#007BA7"/>
<path d="M627.176 303L525.529 404.647L525.529 303L627.176 303Z" fill="#007BA7" fill-opacity="0.7"/>
<rect x="593.288" y="731.438" width="101.647" height="186.353" transform="rotate(-179.611 593.288 731.438)" fill="#007BA7"/>
<rect x="340.44" y="543.366" width="101.647" height="152.471" transform="rotate(-89.6114 340.44 543.366)" fill="#007BA7"/>
<path d="M493.597 442.755L594.552 545.089L492.907 544.4L493.597 442.755Z" fill="#007BA7" fill-opacity="0.7"/>
</svg>
